v -1.062500 -1.375000 -1.375000
v 1.062500 -1.375000 -1.375000
v 1.062500 -1.374999 5.937500
v -1.062500 -1.374999 5.937500
v -1.375000 1.375000 -1.375000
v -1.375000 -1.062500 -1.375000
v -1.375000 -1.062499 5.937500
v -1.375000 1.375001 5.937500
v 1.375000 1.375001 5.937500
v 1.375000 -1.062499 5.937500
v 1.375000 -1.062500 -1.375000
v 1.375000 1.375000 -1.375000
vt 0.320312 0.523438
vt 0.375000 0.333984
vt 0.375000 0.523438
vt 0.419922 0.654297
vt 0.240234 0.593750
vt 0.419922 0.593750
vt 0.240234 0.587891
vt 0.419922 0.527344
vt 0.240234 0.527344
vt 0.306641 0.519531
vt 0.238281 0.339844
vt 0.238281 0.519531
vt 0.386719 0.472656
vt 0.447266 0.480469
vt 0.455078 0.414062
vt 0.312500 0.333984
vt 0.320312 0.333984
vt 0.382812 0.523438
vt 0.455078 0.398438
vt 0.394531 0.406250
vt 0.386719 0.339844
vt 0.240234 0.654297
vt 0.419922 0.587891
vt 0.306641 0.339844
vt 0.386719 0.414062
vt 0.394531 0.480469
vt 0.455078 0.472656
vt 0.312500 0.523438
vt 0.382812 0.333984
vt 0.455078 0.339844
vt 0.447266 0.406250
vt 0.386719 0.398438
vn 0.0000 -1.0000 0.0000
vn -1.0000 0.0000 0.0000
vn 1.0000 0.0000 0.0000
vn 0.0000 1.0000 -0.0000
vn 0.0000 -0.0000 -1.0000
vn 0.7071 -0.7071 0.0000
vn -0.7071 -0.7071 0.0000
vn 0.0000 0.0000 1.0000
usemtl m_JapanTrain
s off
f 2/1/1 4/2/1 1/3/1
f 6/4/2 8/5/2 5/6/2
f 10/7/3 12/8/3 9/9/3
f 5/10/4 9/11/4 12/12/4
f 11/13/5 1/14/5 5/15/5
f 2/1/6 10/16/6 3/17/6
f 4/2/7 6/18/7 1/3/7
f 7/19/8 3/20/8 9/21/8
f 2/1/1 3/17/1 4/2/1
f 6/4/2 7/22/2 8/5/2
f 10/7/3 11/23/3 12/8/3
f 5/10/4 8/24/4 9/11/4
f 5/15/5 12/25/5 11/13/5
f 11/13/5 2/26/5 1/14/5
f 1/14/5 6/27/5 5/15/5
f 2/1/6 11/28/6 10/16/6
f 4/2/7 7/29/7 6/18/7
f 9/21/8 8/30/8 7/19/8
f 7/19/8 4/31/8 3/20/8
f 3/20/8 10/32/8 9/21/8