# Blender v2.91.2 OBJ File: 'asteroid1.blend'
# www.blender.org
mtllib m_asteroid.mtl
o Cube_Cube.001
v 0.500000 0.562500 -0.500000
v 0.375000 -0.625000 -0.375000
v 0.500000 0.625000 0.500000
v 0.437500 -0.562500 0.437500
v -0.437500 0.625000 -0.500000
v -0.437500 -0.562500 -0.437500
v -0.500000 0.562500 0.437500
v -0.500000 -0.562500 0.437500
v -0.187500 0.687500 0.625000
v 0.187500 0.687500 0.625000
v 0.187500 -0.625000 0.500000
v -0.187500 -0.625000 0.500000
v 0.187500 0.687500 -0.562500
v -0.187500 0.687500 -0.562500
v -0.187500 -0.625000 -0.500000
v 0.187500 -0.625000 -0.500000
v 0.500000 -0.625000 -0.187500
v -0.625000 0.687500 -0.187500
v -0.625000 0.687500 0.187500
v -0.500000 -0.625000 0.187500
v -0.187500 -0.750000 0.375000
v -0.187500 -0.687500 -0.250000
v 0.125000 -0.750000 0.375000
v 0.187500 -0.687500 -0.250000
v 0.187500 0.875000 0.375000
v 0.187500 0.875000 -0.375000
v -0.187500 0.875000 0.375000
v -0.187500 0.875000 -0.375000
v 0.625000 0.687500 0.187500
v 0.625000 0.687500 -0.187500
v 0.500000 -0.625000 0.187500
v -0.500000 -0.625000 -0.187500
v -0.187500 -0.750000 0.187500
v -0.187500 -0.750000 -0.187500
v 0.187500 -0.750000 0.187500
v 0.187500 -0.750000 -0.187500
v 0.187500 0.937500 0.187500
v 0.187500 0.937500 -0.187500
v -0.187500 0.937500 0.187500
v -0.187500 0.937500 -0.187500
v 0.625000 0.062500 -0.625000
v 0.562500 -0.250000 -0.562500
v 0.562500 -0.250000 0.562500
v 0.625000 0.062500 0.625000
v -0.562500 -0.250000 0.562500
v -0.625000 0.062500 0.625000
v -0.562500 -0.250000 -0.562500
v -0.625000 0.062500 -0.625000
v -0.187500 -0.250000 -0.562500
v -0.187500 0.062500 -0.625000
v 0.187500 -0.250000 -0.562500
v 0.187500 0.062500 -0.625000
v 0.187500 -0.250000 0.562500
v 0.187500 0.062500 0.625000
v -0.187500 -0.250000 0.562500
v -0.187500 0.062500 0.625000
v -0.562500 -0.250000 0.187500
v -0.562500 -0.250000 -0.187500
v -0.625000 0.062500 -0.187500
v 0.562500 -0.250000 -0.187500
v 0.625000 0.062500 -0.187500
v 0.625000 0.062500 0.187500
v -0.625000 0.062500 0.187500
v 0.562500 -0.250000 0.187500
vt 0.583333 0.458333
vt 0.541667 0.406250
vt 0.583333 0.395833
vt 0.260417 0.208333
vt 0.208333 0.156250
vt 0.260417 0.145833
vt 0.416667 0.458333
vt 0.468750 0.406250
vt 0.416667 0.385417
vt 0.562500 0.208333
vt 0.593750 0.145833
vt 0.562500 0.145833
vt 0.260417 0.572917
vt 0.218750 0.593750
vt 0.187500 0.531250
vt 0.333333 0.541667
vt 0.364583 0.572917
vt 0.385417 0.531250
vt 0.218750 0.583333
vt 0.260417 0.541667
vt 0.208333 0.531250
vt 0.260417 0.593750
vt 0.385417 0.593750
vt 0.333333 0.572917
vt 0.406250 0.531250
vt 0.333333 0.604167
vt 0.500000 0.208333
vt 0.458333 0.156250
vt 0.437500 0.208333
vt 0.500000 0.145833
vt 0.333333 0.208333
vt 0.375000 0.156250
vt 0.395833 0.208333
vt 0.333333 0.145833
vt 0.333333 0.427083
vt 0.260417 0.385417
vt 0.333333 0.385417
vt 0.260417 0.531250
vt 0.385417 0.406250
vt 0.260417 0.406250
vt 0.322917 0.427083
vt 0.333333 0.406250
vt 0.208333 0.416667
vt 0.260417 0.427083
vt 0.333333 0.468750
vt 0.260417 0.427083
vt 0.375000 0.416667
vt 0.208333 0.416667
vt 0.677083 0.458333
vt 0.635417 0.406250
vt 0.614583 0.458333
vt 0.208333 0.468750
vt 0.260417 0.468750
vt 0.656250 0.208333
vt 0.687500 0.145833
vt 0.718750 0.208333
vt 0.333333 0.531250
vt 0.260417 0.468750
vt 0.406250 0.468750
vt 0.260417 0.531250
vt 0.333333 0.468750
vt 0.333333 0.531250
vt 0.385417 0.468750
vt 0.187500 0.468750
vt 0.812500 0.218750
vt 0.739583 0.145833
vt 0.739583 0.218750
vt 0.697917 0.458333
vt 0.760417 0.395833
vt 0.760417 0.458333
vt 0.697917 0.614583
vt 0.760417 0.510417
vt 0.760417 0.614583
vt 0.697917 0.510417
vt 0.812500 0.375000
vt 0.739583 0.270833
vt 0.739583 0.375000
vt 0.812500 0.270833
vt 0.708333 0.354167
vt 0.656250 0.270833
vt 0.729167 0.270833
vt 0.635417 0.593750
vt 0.677083 0.510417
vt 0.604167 0.510417
vt 0.260417 0.375000
vt 0.333333 0.270833
vt 0.333333 0.375000
vt 0.260417 0.270833
vt 0.385417 0.364583
vt 0.406250 0.270833
vt 0.562500 0.375000
vt 0.500000 0.270833
vt 0.500000 0.375000
vt 0.562500 0.270833
vt 0.458333 0.364583
vt 0.427083 0.270833
vt 0.614583 0.354167
vt 0.625000 0.208333
vt 0.479167 0.604167
vt 0.416667 0.510417
vt 0.416667 0.614583
vt 0.489583 0.458333
vt 0.208333 0.354167
vt 0.197917 0.208333
vt 0.531250 0.604167
vt 0.583333 0.510417
vt 0.583333 0.614583
vt 0.520833 0.458333
vt 0.260417 0.604167
vt 0.333333 0.593750
vt 0.677083 0.395833
vt 0.656250 0.145833
vt 0.812500 0.145833
vt 0.697917 0.395833
vt 0.656250 0.375000
vt 0.677083 0.614583
vt 0.635417 0.270833
vt 0.500000 0.510417
vt 0.187500 0.270833
vt 0.510417 0.510417
vn 0.9479 -0.1580 0.2765
vn -0.2243 -0.1602 0.9613
vn -0.9479 -0.1580 -0.2765
vn 0.5494 -0.1374 -0.8242
vn -0.5079 0.7336 -0.4515
vn 0.2224 -0.9636 -0.1482
vn -0.2434 -0.9249 -0.2921
vn 0.0000 -0.9701 -0.2425
vn 0.5120 0.7071 -0.4877
vn 0.0000 0.7071 -0.7071
vn 0.0000 -0.3714 -0.9285
vn 0.0000 -0.1644 -0.9864
vn 0.0000 -0.3714 0.9285
vn 0.0000 -0.1644 0.9864
vn 0.0000 0.8000 0.6000
vn 0.0000 0.9487 -0.3162
vn 0.3714 0.7428 0.5571
vn 0.0000 -0.7071 0.7071
vn -0.2722 -0.6804 0.6804
vn 0.0000 0.9487 0.3162
vn 0.3310 -0.7448 0.5793
vn -0.5623 0.6615 0.4962
vn -0.9806 -0.1961 0.0000
vn -0.3714 -0.9285 0.0000
vn 0.8944 -0.4472 0.0000
vn 0.0000 1.0000 0.0000
vn 0.4961 0.8682 0.0000
vn 0.0000 -1.0000 0.0000
vn 0.3714 -0.9285 0.0000
vn -0.4961 0.8682 0.0000
vn -0.9864 -0.1644 0.0000
vn 0.9864 -0.1644 0.0000
vn 0.2722 -0.6804 -0.6804
vn 0.4766 0.8340 0.2780
vn -0.4766 0.8340 -0.2780
vn 0.0000 -0.7071 -0.7071
vn 1.0000 0.0000 0.0000
vn 0.9806 -0.1961 0.0000
vn -1.0000 0.0000 0.0000
vn 0.9701 0.2425 0.0000
vn -0.9701 0.2425 0.0000
vn 0.0000 0.0000 1.0000
vn 0.0000 -0.1961 0.9806
vn 0.0000 0.2169 0.9762
vn 0.0000 0.0995 -0.9950
vn 0.0000 -0.1961 -0.9806
vn 0.0000 0.2169 -0.9762
vn 0.2323 0.0968 -0.9678
vn -0.8575 0.0000 -0.5145
vn -0.5145 0.0000 0.8575
vn 0.9285 0.0000 0.3714
vn 0.9285 -0.3714 0.0000
vn -0.9285 -0.3714 0.0000
vn 0.0000 -0.4472 -0.8944
vn -0.3333 0.6667 -0.6667
vn 0.1596 -0.9577 -0.2394
vn -0.2901 -0.9284 -0.2321
vn 0.3906 0.6509 -0.6509
vn -0.2765 -0.1580 -0.9479
vn 0.2765 -0.1580 0.9479
vn 0.4928 0.7940 0.3559
vn 0.3686 -0.9214 0.1229
vn -0.4708 -0.8559 0.2140
vn 0.4396 -0.8393 0.3197
vn -0.2722 -0.6804 -0.6804
vn -0.5179 0.6330 0.5754
vn -0.9856 -0.1643 0.0411
vn 0.8242 -0.1374 -0.5494
vn -0.4766 0.8340 0.2780
vn 0.4766 0.8340 -0.2780
vn 0.9285 0.0000 -0.3714
vn -0.8944 0.0000 0.4472
vn 0.3714 0.0000 0.9285
vn -0.2639 0.0960 -0.9598
vn 0.0000 0.2425 -0.9701
vn -0.9487 0.3162 0.0000
vn 0.0000 0.3511 0.9363
vn 0.9762 0.2169 0.0000
usemtl m_asteroid1
s off
f 64/1/1 4/2/1 31/3/1
f 55/4/2 8/5/2 12/6/2
f 58/7/3 6/8/3 32/9/3
f 51/10/4 2/11/4 16/12/4
f 28/13/5 5/14/5 18/15/5
f 24/16/6 2/17/6 17/18/6
f 6/19/7 22/20/7 32/21/7
f 15/22/8 24/16/8 22/20/8
f 1/23/9 26/24/9 30/25/9
f 13/26/10 28/13/10 26/24/10
f 49/27/11 6/28/11 47/29/11
f 51/10/12 15/30/12 49/27/12
f 53/31/13 4/32/13 43/33/13
f 55/4/14 11/34/14 53/31/14
f 25/35/15 9/36/15 10/37/15
f 40/38/16 26/24/16 28/13/16
f 3/39/17 25/35/17 10/37/17
f 12/40/18 23/41/18 11/42/18
f 8/43/19 21/44/19 12/40/19
f 37/45/20 27/46/20 25/35/20
f 23/41/21 4/47/21 11/42/21
f 27/46/22 7/48/22 9/36/22
f 57/49/23 8/50/23 45/51/23
f 20/52/24 33/53/24 21/44/24
f 60/54/25 2/55/25 42/56/25
f 38/57/26 39/58/26 37/45/26
f 30/25/27 37/45/27 29/59/27
f 34/60/28 35/61/28 33/53/28
f 32/21/24 33/53/24 20/52/24
f 36/62/29 31/63/29 35/61/29
f 40/38/30 19/64/30 39/58/30
f 58/65/31 20/66/31 57/67/31
f 64/68/32 17/69/32 60/70/32
f 17/18/33 36/62/33 24/16/33
f 29/59/34 37/45/34 25/35/34
f 18/15/35 40/38/35 28/13/35
f 33/53/28 23/41/28 21/44/28
f 36/62/36 22/20/36 24/16/36
f 29/71/37 61/72/37 30/73/37
f 62/74/38 60/70/38 61/72/38
f 18/75/39 63/76/39 19/77/39
f 59/78/23 57/67/23 63/76/23
f 1/79/40 61/80/40 41/81/40
f 61/80/38 42/56/38 41/81/38
f 7/82/41 63/83/41 46/84/41
f 63/83/23 45/51/23 46/84/23
f 9/85/42 54/86/42 10/87/42
f 56/88/43 53/31/43 54/86/43
f 3/89/44 54/86/44 44/90/44
f 54/86/43 43/33/43 44/90/43
f 13/91/45 50/92/45 14/93/45
f 52/94/46 49/27/46 50/92/46
f 5/95/47 50/92/47 48/96/47
f 50/92/46 47/29/46 48/96/46
f 1/97/48 52/94/48 13/91/48
f 52/94/46 42/98/46 51/10/46
f 5/99/49 59/100/49 18/101/49
f 59/100/23 47/102/23 58/7/23
f 7/103/50 56/88/50 9/85/50
f 56/88/43 45/104/43 55/4/43
f 3/105/51 62/106/51 29/107/51
f 62/106/38 43/108/38 64/1/38
f 64/1/52 43/108/52 4/2/52
f 55/4/13 45/104/13 8/5/13
f 58/7/53 47/102/53 6/8/53
f 51/10/54 42/98/54 2/11/54
f 28/13/55 14/109/55 5/14/55
f 24/16/56 16/110/56 2/17/56
f 6/19/57 15/22/57 22/20/57
f 15/22/8 16/110/8 24/16/8
f 1/23/58 13/26/58 26/24/58
f 13/26/10 14/109/10 28/13/10
f 49/27/59 15/30/59 6/28/59
f 51/10/12 16/12/12 15/30/12
f 53/31/60 11/34/60 4/32/60
f 55/4/14 12/6/14 11/34/14
f 25/35/15 27/46/15 9/36/15
f 40/38/16 38/57/16 26/24/16
f 3/39/61 29/59/61 25/35/61
f 23/41/62 35/61/62 31/63/62
f 12/40/18 21/44/18 23/41/18
f 8/43/63 20/52/63 21/44/63
f 37/45/20 39/58/20 27/46/20
f 23/41/64 31/63/64 4/47/64
f 22/20/65 34/60/65 32/21/65
f 27/46/66 19/64/66 7/48/66
f 57/49/67 20/111/67 8/50/67
f 60/54/68 17/112/68 2/55/68
f 38/57/26 40/38/26 39/58/26
f 30/25/27 38/57/27 37/45/27
f 34/60/28 36/62/28 35/61/28
f 32/21/24 34/60/24 33/53/24
f 36/62/29 17/18/29 31/63/29
f 40/38/30 18/15/30 19/64/30
f 58/65/31 32/113/31 20/66/31
f 64/68/32 31/114/32 17/69/32
f 27/46/69 39/58/69 19/64/69
f 26/24/70 38/57/70 30/25/70
f 33/53/28 35/61/28 23/41/28
f 36/62/36 34/60/36 22/20/36
f 29/71/37 62/74/37 61/72/37
f 62/74/38 64/68/38 60/70/38
f 18/75/39 59/78/39 63/76/39
f 59/78/23 58/65/23 57/67/23
f 1/79/71 30/115/71 61/80/71
f 61/80/38 60/54/38 42/56/38
f 7/82/72 19/116/72 63/83/72
f 63/83/23 57/49/23 45/51/23
f 9/85/42 56/88/42 54/86/42
f 56/88/43 55/4/43 53/31/43
f 3/89/73 10/87/73 54/86/73
f 54/86/43 53/31/43 43/33/43
f 13/91/45 52/94/45 50/92/45
f 52/94/46 51/10/46 49/27/46
f 5/95/74 14/93/74 50/92/74
f 50/92/46 49/27/46 47/29/46
f 1/97/75 41/117/75 52/94/75
f 52/94/46 41/117/46 42/98/46
f 5/99/76 48/118/76 59/100/76
f 59/100/23 48/118/23 47/102/23
f 7/103/77 46/119/77 56/88/77
f 56/88/43 46/119/43 45/104/43
f 3/105/78 44/120/78 62/106/78
f 62/106/38 44/120/38 43/108/38
