# Blender v2.91.2 OBJ File: 'asteroid_column.blend'
# www.blender.org
mtllib m_asteroid_column.mtl
o Cube
v 0.475205 0.405360 -1.649391
v 0.475205 -0.574291 -1.649391
v 0.535584 0.615285 1.366825
v 0.475205 -0.434341 1.492501
v -0.430476 0.475335 -1.649391
v -0.490855 -0.644266 -1.586553
v -0.490855 0.475335 1.429663
v -0.430476 -0.574291 1.555339
v 0.535584 0.615285 0.926960
v 0.535584 0.615285 0.047230
v 0.475205 0.475335 -0.895337
v 0.475205 -0.574291 -0.895337
v 0.475205 -0.574291 -0.015607
v 0.475205 -0.504316 0.864122
v -0.430476 0.475335 -0.895337
v -0.551234 0.615285 0.047230
v -0.490855 0.545310 0.989798
v -0.430476 -0.574291 0.989798
v -0.551234 -0.574291 0.047230
v -0.551234 -0.574291 -0.832499
v 0.414826 -0.084466 -1.586553
v 0.535584 -0.014491 1.743852
v -0.551234 -0.014491 1.743852
v -0.611612 -0.014491 -1.586553
v -0.551234 -0.014491 0.926960
v -0.792749 -0.014491 0.047230
v -0.611612 -0.014491 -0.832499
v 0.716720 0.055484 -0.895337
v 0.897856 -0.014491 -0.141283
v 0.716720 -0.014491 0.864122
v -0.007825 0.615285 1.743852
v 0.112933 -0.644266 1.555339
v -0.007825 0.685260 -1.586553
v -0.068204 -0.644266 -1.712229
v -0.007825 -0.504316 0.926960
v -0.128582 -0.714241 -0.015607
v -0.188961 -0.854192 -0.832499
v -0.007825 0.755235 0.989798
v -0.007825 0.755235 0.047230
v -0.007825 0.615285 -0.832499
v -0.007825 -0.014491 -1.837905
v -0.007825 -0.014491 1.743852
vt 0.160126 0.339330
vt 0.052018 0.267097
vt 0.008774 0.339330
vt 0.306792 0.573575
vt 0.234078 0.477266
vt 0.213302 0.573575
vt 0.452017 0.020813
vt 0.581747 0.117123
vt 0.452017 0.117123
vt 0.102264 0.465227
vt 0.185366 0.561536
vt 0.112652 0.573575
vt 0.630882 0.462828
vt 0.703596 0.581747
vt 0.703596 0.452017
vt 0.991226 0.430396
vt 0.897736 0.570936
vt 0.876961 0.419585
vt 0.991226 0.019585
vt 0.908124 0.116882
vt 0.928899 0.008774
vt 0.991226 0.279044
vt 0.887348 0.279044
vt 0.620494 0.062828
vt 0.703596 0.138504
vt 0.703596 0.008774
vt 0.620494 0.138504
vt 0.703596 0.300666
vt 0.610106 0.300666
vt 0.041207 0.020813
vt 0.149315 0.117123
vt 0.008774 0.117123
vt 0.300666 0.020813
vt 0.300666 0.117123
vt 0.581747 0.327291
vt 0.462828 0.243020
vt 0.462828 0.351368
vt 0.333098 0.339330
vt 0.311477 0.243020
vt 0.300666 0.447678
vt 0.149315 0.447678
vt 0.462828 0.423601
vt 0.592557 0.411562
vt 0.300666 0.225471
vt 0.462828 0.201394
vt 0.138504 0.213432
vt 0.062828 0.201394
vt 0.195753 0.645807
vt 0.112652 0.693962
vt 0.592557 0.201394
vt 0.223690 0.657846
vt 0.306792 0.681924
vt 0.073639 0.447678
vt 0.400281 0.573575
vt 0.400281 0.681924
vt 0.039938 0.657846
vt 0.797085 0.300666
vt 0.786698 0.462828
vt 0.797085 0.149315
vt 0.797085 0.073639
vt 0.814634 0.419585
vt 0.814634 0.268234
vt 0.835410 0.106072
vt 0.835410 0.008774
vt 0.825022 0.549314
vt 0.786698 0.592557
vt 0.029550 0.465227
vt 0.008774 0.573575
vt 0.389894 0.501343
vt 0.160126 0.255059
vt 0.327567 0.465227
vt 0.581747 0.008774
vt 0.195753 0.477266
vt 0.630882 0.592557
vt 0.991226 0.560125
vt 0.991226 0.127693
vt 0.138504 0.020813
vt 0.592557 0.243020
vn -0.9476 0.2531 -0.1951
vn 0.0000 0.3191 -0.9477
vn 0.9942 0.1072 0.0000
vn -0.4725 0.2158 0.8545
vn 0.3248 -0.9417 -0.0874
vn -0.3694 0.9141 0.1674
vn -0.4458 0.8517 0.2754
vn -0.2219 0.9574 -0.1848
vn -0.3954 0.9097 -0.1266
vn 0.3742 -0.9118 -0.1692
vn 0.3986 -0.9171 0.0000
vn 0.2465 -0.9571 0.1523
vn 0.9775 0.2109 0.0000
vn 0.8903 0.3841 -0.2444
vn 0.9022 0.3892 0.1858
vn -0.8853 0.3395 0.3179
vn -0.9042 0.3468 0.2494
vn -0.8050 0.5752 -0.1450
vn -0.9610 -0.2764 0.0000
vn -0.8417 -0.5236 0.1317
vn -0.8659 -0.4981 0.0462
vn 0.9315 -0.3230 0.1673
vn 0.9925 -0.0991 -0.0709
vn 0.9943 -0.1054 -0.0168
vn -0.0733 -0.3371 0.9386
vn 0.9379 -0.3468 0.0000
vn 0.5453 0.0000 -0.8383
vn -0.5115 -0.4414 -0.7373
vn 0.0280 -0.3379 0.9408
vn -0.2558 -0.9537 0.1580
vn -0.2494 -0.9684 0.0000
vn 0.3143 0.9493 0.0000
vn -0.1603 0.9868 0.0205
vn -0.1633 0.9866 0.0000
vn 0.6112 0.7911 -0.0245
vn -0.4919 -0.8669 0.0804
vn 0.3833 0.0735 0.9207
vn 0.0000 0.5137 -0.8580
vn -0.8958 0.4417 -0.0492
vn 0.0378 0.2932 -0.9553
vn 0.9803 0.1880 0.0610
vn -0.0962 -0.1383 0.9857
vn 0.4448 -0.8956 0.0000
vn -0.1277 0.9918 0.0000
vn -0.0144 0.9938 -0.1107
vn -0.0103 0.9968 -0.0793
vn -0.2258 0.9742 0.0000
vn 0.3944 -0.9075 -0.1444
vn 0.2484 -0.9647 -0.0875
vn 0.2857 -0.9419 0.1765
vn 0.9727 0.1958 -0.1246
vn -0.9925 -0.1223 0.0000
vn -0.7981 0.6026 0.0000
vn -0.8963 0.4420 -0.0352
vn -0.8756 -0.4565 -0.1578
vn -0.8557 -0.4922 0.1599
vn -0.9161 0.1601 0.3677
vn 0.9169 -0.3516 0.1888
vn 0.9045 -0.3469 -0.2483
vn 0.9925 -0.1223 0.0000
vn -0.4828 0.1697 0.8591
vn 0.0000 -0.5399 -0.8417
vn -0.9724 -0.1199 -0.2002
vn 0.0000 0.0000 -1.0000
vn 0.3842 -0.0237 0.9229
vn -0.2465 -0.9571 0.1523
vn -0.1256 -0.9754 -0.1810
vn 0.6016 0.7787 -0.1779
vn 0.2723 0.9312 -0.2423
vn 0.1253 0.9732 0.1927
vn 0.0716 0.9679 0.2408
vn -0.2878 -0.9536 -0.0885
vn 0.2813 0.1618 0.9459
vn -0.2905 0.2228 -0.9306
usemtl m_asteroidcolumn
s off
f 30/1/1 4/2/1 22/3/1
f 42/4/2 8/5/2 23/6/2
f 20/7/3 24/8/3 27/9/3
f 34/10/4 21/11/4 41/12/4
f 15/13/5 33/14/5 40/15/5
f 12/16/6 34/17/6 37/18/6
f 4/19/7 35/20/7 32/21/7
f 35/20/8 13/22/8 36/23/8
f 36/23/9 12/16/9 37/18/9
f 7/24/10 38/25/10 31/26/10
f 17/27/11 39/28/11 38/25/11
f 16/29/12 40/15/12 39/28/12
f 8/30/13 25/31/13 23/32/13
f 25/31/14 19/33/14 26/34/14
f 19/33/15 27/9/15 26/34/15
f 21/35/16 12/36/16 28/37/16
f 12/36/17 29/38/17 28/37/17
f 13/39/18 30/1/18 29/38/18
f 10/40/19 30/1/19 9/41/19
f 11/42/20 29/38/20 10/40/20
f 1/43/21 28/37/21 11/42/21
f 16/44/22 27/9/22 15/45/22
f 25/31/23 16/44/23 17/46/23
f 7/47/24 25/31/24 17/46/24
f 41/12/25 1/48/25 33/49/25
f 15/45/26 24/8/26 5/50/26
f 42/4/27 7/51/27 31/52/27
f 30/1/19 3/53/19 9/41/19
f 22/54/28 31/52/28 3/55/28
f 5/56/29 41/12/29 33/49/29
f 10/57/30 40/15/30 11/58/30
f 9/59/31 39/28/31 10/57/31
f 3/60/31 38/25/31 9/59/31
f 36/23/32 20/61/32 19/62/32
f 35/20/33 19/62/33 18/63/33
f 8/64/34 35/20/34 18/63/34
f 37/18/35 6/65/35 20/61/35
f 11/58/36 33/14/36 1/66/36
f 6/67/37 41/12/37 24/68/37
f 4/69/38 42/4/38 22/54/38
f 30/1/39 14/70/39 4/2/39
f 42/4/40 32/71/40 8/5/40
f 20/7/41 6/72/41 24/8/41
f 34/10/42 2/73/42 21/11/42
f 15/13/43 5/74/43 33/14/43
f 12/16/44 2/75/44 34/17/44
f 4/19/45 14/76/45 35/20/45
f 35/20/46 14/76/46 13/22/46
f 36/23/47 13/22/47 12/16/47
f 7/24/48 17/27/48 38/25/48
f 17/27/49 16/29/49 39/28/49
f 16/29/50 15/13/50 40/15/50
f 8/30/13 18/77/13 25/31/13
f 25/31/51 18/77/51 19/33/51
f 19/33/3 20/7/3 27/9/3
f 21/35/52 2/78/52 12/36/52
f 12/36/53 13/39/53 29/38/53
f 13/39/54 14/70/54 30/1/54
f 10/40/55 29/38/55 30/1/55
f 11/42/56 28/37/56 29/38/56
f 1/43/57 21/35/57 28/37/57
f 16/44/58 26/34/58 27/9/58
f 25/31/59 26/34/59 16/44/59
f 7/47/60 23/32/60 25/31/60
f 41/12/61 21/11/61 1/48/61
f 15/45/26 27/9/26 24/8/26
f 42/4/62 23/6/62 7/51/62
f 30/1/63 22/3/63 3/53/63
f 22/54/64 42/4/64 31/52/64
f 5/56/65 24/68/65 41/12/65
f 10/57/66 39/28/66 40/15/66
f 9/59/31 38/25/31 39/28/31
f 3/60/67 31/26/67 38/25/67
f 36/23/68 37/18/68 20/61/68
f 35/20/69 36/23/69 19/62/69
f 8/64/70 32/21/70 35/20/70
f 37/18/71 34/17/71 6/65/71
f 11/58/72 40/15/72 33/14/72
f 6/67/73 34/10/73 41/12/73
f 4/69/74 32/71/74 42/4/74
