# Blender v2.91.2 OBJ File: 'asteroid_croisant.blend'
# www.blender.org
mtllib m_asteroid_cwasant.mtl
o Cube_Cube.030
v 1.512926 -0.552366 2.365380
v 0.991420 1.156334 2.357382
v 0.795086 -1.578670 -2.495703
v 0.918602 1.268674 -2.462220
v -1.225557 -0.580885 2.494359
v -1.085547 1.405775 2.222489
v -1.457702 -0.920944 -2.406218
v -1.491309 1.337729 -2.492929
v 1.612236 -1.453996 -2.077995
v 1.875192 -1.327339 -1.560143
v -0.406384 -1.928344 0.013648
v 1.991176 -1.682230 1.377447
v 1.579215 -1.194239 1.949560
v 1.468284 1.389058 2.528772
v 1.626294 1.789004 1.499853
v -0.415498 1.987390 -0.013787
v 1.648898 1.804674 -1.569911
v 1.585482 1.257949 -1.980315
v -2.353769 -1.058996 1.837519
v -2.186898 -1.538483 0.865808
v -2.671362 -1.565990 0.092656
v -2.388919 -1.385097 -0.999123
v -1.862931 -1.570802 -1.745761
v -2.096745 1.013209 -1.736598
v -2.407228 1.555956 -0.857782
v -2.761327 1.450511 0.065512
v -2.356483 1.806168 1.126706
v -1.949430 1.264607 1.898157
v -0.398504 -1.189932 -2.497903
v -0.065937 0.740359 -2.825648
v 0.163962 -0.648554 2.781308
v 0.033948 1.271910 2.506624
v -0.000000 1.908275 -1.803764
v 0.054163 2.510204 -0.735225
v -1.228168 2.287091 -0.090404
v 0.008451 2.733409 0.908428
v -0.000000 1.908275 1.803764
v 0.060293 -2.255544 -1.766033
v -0.000000 -1.997806 -0.901882
v -1.353556 -1.948179 0.029353
v -0.000000 -1.997806 0.901882
v -0.000000 -1.997806 1.803764
vt 0.375000 0.208333
vt 0.625000 0.250000
vt 0.375000 0.250000
vt 0.625000 0.375000
vt 0.375000 0.500000
vt 0.375000 0.375000
vt 0.625000 0.708333
vt 0.375000 0.750000
vt 0.375000 0.708333
vt 0.375000 0.875000
vt 0.625000 1.000000
vt 0.375000 1.000000
vt 0.250000 0.708333
vt 0.250000 0.750000
vt 0.750000 0.708333
vt 0.875000 0.750000
vt 0.750000 0.750000
vt 0.875000 0.500000
vt 0.750000 0.541667
vt 0.750000 0.500000
vt 0.875000 0.541667
vt 0.750000 0.583333
vt 0.875000 0.625000
vt 0.750000 0.625000
vt 0.750000 0.666667
vt 0.875000 0.666667
vt 0.250000 0.541667
vt 0.250000 0.500000
vt 0.375000 0.541667
vt 0.250000 0.583333
vt 0.375000 0.625000
vt 0.250000 0.625000
vt 0.250000 0.666667
vt 0.375000 0.666667
vt 0.625000 0.541667
vt 0.375000 0.583333
vt 0.625000 0.583333
vt 0.625000 0.625000
vt 0.625000 0.666667
vt 0.375000 0.000000
vt 0.625000 0.041667
vt 0.375000 0.041667
vt 0.375000 0.083333
vt 0.625000 0.125000
vt 0.375000 0.125000
vt 0.625000 0.166667
vt 0.375000 0.166667
vt 0.125000 0.708333
vt 0.125000 0.666667
vt 0.125000 0.625000
vt 0.125000 0.583333
vt 0.125000 0.541667
vt 0.125000 0.500000
vt 0.625000 0.500000
vt 0.625000 0.750000
vt 0.125000 0.750000
vt 0.625000 0.875000
vt 0.625000 0.208333
vt 0.875000 0.708333
vt 0.875000 0.583333
vt 0.625000 0.000000
vt 0.625000 0.083333
vn -0.4563 0.0093 0.8898
vn 0.1220 0.1457 0.9818
vn 0.5236 -0.0690 -0.8492
vn -0.2874 -0.0922 -0.9534
vn 0.1936 0.5601 -0.8055
vn -0.1903 -0.7323 -0.6538
vn 0.0774 -0.6590 0.7482
vn -0.2863 -0.8285 0.4812
vn -0.2050 -0.7243 -0.6583
vn -0.3093 -0.6648 0.6800
vn -0.1778 -0.7228 -0.6678
vn 0.2217 0.6151 0.7566
vn 0.3224 0.9130 -0.2498
vn 0.2762 0.8936 0.3538
vn 0.2479 0.9098 -0.3328
vn 0.2055 0.9786 0.0000
vn 0.8171 0.0719 0.5721
vn 0.8238 0.0725 0.5623
vn 0.9684 -0.0060 0.2495
vn 0.8469 0.0205 -0.5314
vn 0.9878 0.0383 0.1507
vn -0.9900 -0.0109 -0.1410
vn -0.7591 0.1112 -0.6414
vn -0.4948 0.0049 0.8690
vn -0.5596 -0.0430 -0.8277
vn -0.8837 -0.0624 0.4640
vn 0.0298 0.7710 -0.6362
vn -0.1924 0.9676 0.1637
vn -0.4016 0.8824 -0.2452
vn -0.4566 0.8896 0.0143
vn -0.3457 0.8356 0.4270
vn 0.2295 -0.7355 -0.6374
vn 0.3732 -0.9132 0.1637
vn 0.3599 -0.9324 0.0315
vn 0.3360 -0.7437 0.5780
vn 0.3890 -0.9175 -0.0823
vn 0.2781 -0.8939 -0.3517
vn -0.1878 0.5203 -0.8331
vn 0.1947 -0.1259 -0.9727
vn 0.0499 0.1588 0.9860
vn -0.5857 -0.0349 0.8098
vn 0.2433 0.0408 0.9691
vn 0.3690 -0.1515 -0.9170
vn -0.1700 -0.1508 -0.9738
vn 0.2172 0.5730 -0.7902
vn 0.3965 -0.1447 -0.9066
vn -0.3076 -0.8603 0.4065
vn 0.1426 -0.6047 0.7836
vn -0.5623 -0.4511 -0.6930
vn -0.5427 -0.5134 0.6648
vn -0.1376 -0.9159 -0.3771
vn 0.2287 0.6201 0.7505
vn 0.2504 0.9660 -0.0639
vn 0.2342 0.9475 0.2176
vn 0.2054 0.9650 -0.1630
vn 0.3398 0.8652 -0.3686
vn 0.7726 0.0358 0.6339
vn 0.9408 -0.0104 0.3388
vn 0.9320 0.0310 0.3610
vn 0.9228 0.0762 -0.3776
vn 0.8357 -0.1315 -0.5333
vn 0.2991 0.0869 -0.9502
vn -0.9775 -0.0961 -0.1875
vn -0.5988 -0.0910 0.7957
vn -0.6023 -0.0070 -0.7982
vn -0.9847 -0.0160 0.1734
vn -0.4535 0.8913 0.0000
vn -0.0194 0.9960 0.0868
vn -0.0223 0.9961 -0.0855
vn -0.4102 0.8657 -0.2868
vn 0.1977 0.6114 0.7662
vn 0.2059 -0.7206 -0.6621
vn 0.4575 -0.8714 -0.1770
vn 0.4249 -0.6640 0.6152
vn 0.3018 -0.8371 0.4563
vn -0.0979 -0.6522 0.7517
vn 0.0822 -0.7368 -0.6711
vn -0.2767 0.5856 -0.7619
vn 0.2267 -0.1477 -0.9627
vn -0.3482 0.0041 0.9374
usemtl None
s off
f 9/1/1 4/2/1 3/3/1
f 30/4/2 7/5/2 29/6/2
f 28/7/3 5/8/3 19/9/3
f 31/10/4 2/11/4 1/12/4
f 42/13/5 5/8/5 31/14/5
f 37/15/6 2/16/6 32/17/6
f 4/18/7 33/19/7 30/20/7
f 18/21/8 34/22/8 33/19/8
f 34/22/9 16/23/9 35/24/9
f 16/23/10 36/25/10 35/24/10
f 15/26/11 37/15/11 36/25/11
f 7/5/12 38/27/12 29/28/12
f 23/29/13 39/30/13 38/27/13
f 39/30/14 21/31/14 40/32/14
f 21/31/15 41/33/15 40/32/15
f 20/34/16 42/13/16 41/33/16
f 7/5/17 24/35/17 23/29/17
f 24/35/18 22/36/18 23/29/18
f 25/37/19 21/31/19 22/36/19
f 26/38/20 20/34/20 21/31/20
f 27/39/21 19/9/21 20/34/21
f 1/40/22 14/41/22 13/42/22
f 14/41/23 12/43/23 13/42/23
f 12/43/24 16/44/24 11/45/24
f 11/45/25 17/46/25 10/47/25
f 17/46/26 9/1/26 10/47/26
f 41/33/27 13/48/27 12/49/27
f 11/50/28 41/33/28 12/49/28
f 39/30/29 11/50/29 10/51/29
f 38/27/30 10/51/30 9/52/30
f 3/53/31 38/27/31 9/52/31
f 36/25/32 28/7/32 27/39/32
f 26/38/33 36/25/33 27/39/33
f 34/22/34 26/38/34 25/37/34
f 33/19/35 25/37/35 24/35/35
f 8/54/36 33/19/36 24/35/36
f 37/15/37 6/55/37 28/7/37
f 42/13/38 1/56/38 13/48/38
f 5/8/39 32/57/39 31/10/39
f 3/3/40 30/4/40 29/6/40
f 9/1/41 18/58/41 4/2/41
f 30/4/42 8/54/42 7/5/42
f 28/7/43 6/55/43 5/8/43
f 31/10/44 32/57/44 2/11/44
f 42/13/45 19/9/45 5/8/45
f 37/15/46 14/59/46 2/16/46
f 4/18/47 18/21/47 33/19/47
f 18/21/48 17/60/48 34/22/48
f 34/22/49 17/60/49 16/23/49
f 16/23/50 15/26/50 36/25/50
f 15/26/51 14/59/51 37/15/51
f 7/5/52 23/29/52 38/27/52
f 23/29/53 22/36/53 39/30/53
f 39/30/54 22/36/54 21/31/54
f 21/31/55 20/34/55 41/33/55
f 20/34/56 19/9/56 42/13/56
f 7/5/57 8/54/57 24/35/57
f 24/35/58 25/37/58 22/36/58
f 25/37/59 26/38/59 21/31/59
f 26/38/60 27/39/60 20/34/60
f 27/39/61 28/7/61 19/9/61
f 1/40/62 2/61/62 14/41/62
f 14/41/63 15/62/63 12/43/63
f 12/43/64 15/62/64 16/44/64
f 11/45/65 16/44/65 17/46/65
f 17/46/66 18/58/66 9/1/66
f 41/33/67 42/13/67 13/48/67
f 11/50/68 40/32/68 41/33/68
f 39/30/69 40/32/69 11/50/69
f 38/27/70 39/30/70 10/51/70
f 3/53/71 29/28/71 38/27/71
f 36/25/72 37/15/72 28/7/72
f 26/38/73 35/24/73 36/25/73
f 34/22/74 35/24/74 26/38/74
f 33/19/75 34/22/75 25/37/75
f 8/54/76 30/20/76 33/19/76
f 37/15/77 32/17/77 6/55/77
f 42/13/78 31/14/78 1/56/78
f 5/8/79 6/55/79 32/57/79
f 3/3/80 4/2/80 30/4/80
