# Blender v2.91.2 OBJ File: 'asteroid_row.blend'
# www.blender.org
mtllib m_asteroid_row.mtl
o Cube
v 0.564763 0.351587 -2.545720
v 0.491728 -0.529661 -2.387520
v 0.411683 0.578119 2.248149
v 0.502816 -0.538638 2.401188
v -0.396292 0.542358 -2.511667
v -0.752796 -0.542196 -2.557210
v -0.653422 0.496646 2.561458
v -0.533229 -0.543409 2.522815
v 0.630219 0.640692 1.525894
v 0.419619 0.623710 0.125473
v 0.458500 0.296848 -1.443699
v 0.475205 -0.574291 -1.405627
v 0.475205 -0.574291 0.019377
v 0.609220 -0.363811 1.432062
v -0.291970 0.468799 -1.459717
v -0.551234 0.615285 0.121163
v -0.322705 0.578558 1.639036
v -0.481474 -0.388279 1.717133
v -0.551234 -0.574291 0.121163
v -0.565606 -0.498301 -1.295043
v 0.571408 -0.181538 -2.475032
v 0.541155 0.120444 2.615374
v -0.786029 0.029394 2.819615
v -0.932791 0.032287 -2.680752
v -0.597794 -0.036103 1.552777
v -0.930897 -0.050140 0.119304
v -0.587387 -0.027240 -1.405320
v 0.929622 0.050276 -1.455183
v 0.699206 -0.021636 -0.424304
v 0.903099 -0.068324 1.373091
v -0.286984 0.593862 2.539959
v 0.112933 -0.644266 2.564026
v 0.077402 0.548891 -2.618435
v -0.107267 -0.564642 -2.642441
v -0.010517 -0.504316 1.556966
v -0.128582 -0.714241 0.019377
v -0.219846 -0.694257 -1.330546
v -0.007825 0.755235 1.647952
v -0.007825 0.755235 0.121163
v -0.048290 0.497212 -1.372548
v -0.007825 -0.014491 -2.932416
v -0.111183 0.073213 2.853287
vt 0.163395 0.903146
vt 0.008384 0.926700
vt 0.035110 0.844460
vt 0.530278 0.253624
vt 0.446071 0.248156
vt 0.477615 0.176682
vt 0.521807 0.684292
vt 0.535567 0.743070
vt 0.694715 0.750498
vt 0.549079 0.008384
vt 0.561488 0.077031
vt 0.633764 0.056187
vt 0.276874 0.510142
vt 0.307281 0.499265
vt 0.322964 0.654726
vt 0.161613 0.503713
vt 0.074885 0.494345
vt 0.088932 0.658042
vt 0.165058 0.028703
vt 0.116409 0.008384
vt 0.101005 0.134044
vt 0.086273 0.325903
vt 0.161613 0.325903
vt 0.231773 0.008384
vt 0.277497 0.011067
vt 0.312330 0.122370
vt 0.273039 0.123483
vt 0.312330 0.312882
vt 0.244524 0.312882
vt 0.045418 0.678663
vt 0.008384 0.750137
vt 0.166459 0.741964
vt 0.345326 0.740213
vt 0.345094 0.674810
vt 0.643560 0.889019
vt 0.516304 0.917945
vt 0.510121 0.840012
vt 0.387672 0.908972
vt 0.332310 0.840012
vt 0.319071 0.989497
vt 0.144328 0.991616
vt 0.514871 0.948712
vt 0.383777 0.645653
vt 0.370517 0.508144
vt 0.429303 0.509577
vt 0.345094 0.823244
vt 0.542355 0.804966
vt 0.155695 0.818661
vt 0.040597 0.808440
vt 0.572122 0.147329
vt 0.632935 0.122710
vt 0.673616 0.814144
vt 0.508342 0.318590
vt 0.462618 0.306459
vt 0.054206 0.983808
vt 0.611676 0.259517
vt 0.595521 0.316625
vt 0.513015 0.146514
vt 0.365666 0.312344
vt 0.391944 0.137601
vt 0.364675 0.047478
vt 0.033535 0.313202
vt 0.031741 0.489915
vt 0.042239 0.114058
vt 0.035781 0.013526
vt 0.008384 0.647407
vt 0.468531 0.011185
vt 0.446071 0.082868
vt 0.606892 0.177277
vt 0.215005 0.156988
vt 0.178335 0.149629
vt 0.558243 0.164097
vt 0.679299 0.678815
vt 0.623821 0.012749
vt 0.263857 0.641404
vt 0.163674 0.626233
vt 0.145951 0.698020
vt 0.632640 0.845581
vt 0.156036 0.866275
vt 0.400552 0.380944
vt 0.652380 0.955542
vn 0.9426 -0.1516 0.2977
vn -0.0140 -0.4649 0.8853
vn -0.9649 0.0167 0.2621
vn 0.4552 -0.4782 -0.7511
vn -0.1258 0.9916 0.0284
vn 0.1607 -0.9835 -0.0834
vn 0.1960 -0.9677 -0.1585
vn 0.2243 -0.9677 0.1149
vn 0.1673 -0.9856 -0.0259
vn -0.2500 0.9635 0.0961
vn -0.4893 0.8721 0.0000
vn -0.2463 0.9562 -0.1585
vn -0.9297 -0.3481 -0.1202
vn -0.7954 -0.5754 0.1905
vn -0.7951 -0.5766 -0.1878
vn 0.7946 -0.5896 -0.1451
vn 0.8059 -0.5752 0.1400
vn 0.8863 -0.4493 -0.1122
vn 0.9132 0.3820 -0.1420
vn 0.8918 0.4468 -0.0710
vn 0.4636 0.8816 0.0885
vn -0.8531 0.4878 -0.1851
vn -0.9104 0.3869 0.1464
vn -0.8636 0.4246 -0.2719
vn 0.3008 0.4291 -0.8517
vn -0.7036 0.7006 0.1188
vn -0.0802 0.4939 0.8658
vn 0.9101 0.2856 0.3001
vn 0.3062 0.6470 0.6983
vn -0.1970 0.4998 -0.8434
vn 0.3390 0.9227 -0.1838
vn 0.2942 0.9541 -0.0558
vn 0.2016 0.9687 0.1449
vn -0.3243 -0.9448 -0.0474
vn -0.1981 -0.9726 0.1220
vn -0.2977 -0.9337 -0.1989
vn -0.4826 -0.8699 0.1018
vn 0.3636 0.9280 0.0812
vn -0.2652 -0.2814 -0.9222
vn 0.3456 -0.3081 0.8864
vn 0.7030 -0.7093 -0.0508
vn -0.1208 -0.4034 0.9070
vn -0.9522 -0.2660 0.1505
vn 0.3878 -0.3072 -0.8690
vn 0.0019 0.9976 0.0696
vn 0.0769 -0.9961 -0.0440
vn 0.1888 -0.9698 -0.1542
vn 0.2425 -0.9626 0.1204
vn 0.2258 -0.9742 0.0000
vn -0.4850 0.8692 -0.0967
vn -0.2489 0.9666 0.0609
vn -0.0782 0.9914 -0.1047
vn -0.9220 -0.3650 -0.1295
vn -0.9567 -0.2812 0.0746
vn -0.9990 -0.0444 0.0078
vn 0.9751 -0.2216 0.0063
vn 0.9268 -0.3756 0.0000
vn 0.7122 -0.7010 0.0369
vn 0.8843 0.4584 -0.0884
vn 0.4606 0.8724 0.1638
vn 0.9452 -0.0313 -0.3249
vn -0.8534 0.4874 -0.1849
vn -0.8524 0.4858 0.1933
vn -0.9696 0.1901 -0.1539
vn 0.5992 -0.0979 -0.7946
vn -0.8206 0.5157 0.2463
vn -0.0755 0.4985 0.8636
vn 0.8905 0.4101 0.1971
vn 0.2479 0.5596 0.7908
vn -0.2047 0.4952 -0.8443
vn 0.2914 0.9413 -0.1705
vn 0.1767 0.9843 0.0000
vn 0.1096 0.9715 0.2101
vn -0.4914 -0.8707 0.0203
vn -0.2778 -0.9487 0.1509
vn -0.1457 -0.9822 -0.1186
vn -0.0481 -0.9936 -0.1023
vn 0.3758 0.9235 0.0762
vn -0.1325 -0.4433 -0.8865
vn 0.4262 -0.2206 0.8773
usemtl m_asteroidcolumn
s off
f 30/1/1 22/2/1 4/3/1
f 42/4/2 23/5/2 8/6/2
f 20/7/3 27/8/3 24/9/3
f 34/10/4 41/11/4 21/12/4
f 15/13/5 40/14/5 33/15/5
f 12/16/6 37/17/6 34/18/6
f 4/19/7 32/20/7 35/21/7
f 35/21/8 36/22/8 13/23/8
f 36/22/9 37/17/9 12/16/9
f 7/24/10 31/25/10 38/26/10
f 17/27/11 38/26/11 39/28/11
f 16/29/12 39/28/12 40/14/12
f 8/30/13 23/31/13 25/32/13
f 25/32/14 26/33/14 19/34/14
f 19/34/15 26/33/15 27/8/15
f 21/35/16 28/36/16 12/37/16
f 12/37/17 28/36/17 29/38/17
f 13/39/18 29/38/18 30/1/18
f 10/40/19 9/41/19 30/1/19
f 11/42/20 10/40/20 29/38/20
f 1/43/21 11/44/21 28/45/21
f 16/46/22 15/47/22 27/8/22
f 25/32/23 17/48/23 16/46/23
f 7/49/24 17/48/24 25/32/24
f 41/11/25 33/50/25 1/51/25
f 15/47/26 5/52/26 24/9/26
f 42/4/27 31/53/27 7/54/27
f 30/1/28 9/41/28 3/55/28
f 22/56/29 3/57/29 31/53/29
f 5/58/30 33/50/30 41/11/30
f 10/59/31 11/44/31 40/14/31
f 9/60/32 10/59/32 39/28/32
f 3/61/33 9/60/33 38/26/33
f 36/22/34 19/62/34 20/63/34
f 35/21/35 18/64/35 19/62/35
f 8/65/36 18/64/36 35/21/36
f 37/17/37 20/63/37 6/66/37
f 11/44/38 1/43/38 33/15/38
f 6/67/39 24/68/39 41/11/39
f 4/69/40 22/56/40 42/4/40
f 30/70/41 4/19/41 14/71/41
f 42/4/42 8/6/42 32/72/42
f 20/7/43 24/9/43 6/73/43
f 34/10/44 21/12/44 2/74/44
f 15/13/45 33/15/45 5/75/45
f 12/16/46 34/18/46 2/76/46
f 4/19/47 35/21/47 14/71/47
f 35/21/48 13/23/48 14/71/48
f 36/22/49 12/16/49 13/23/49
f 7/24/50 38/26/50 17/27/50
f 17/27/51 39/28/51 16/29/51
f 16/29/52 40/14/52 15/13/52
f 8/30/53 25/32/53 18/77/53
f 25/32/54 19/34/54 18/77/54
f 19/34/55 27/8/55 20/7/55
f 21/35/56 12/37/56 2/78/56
f 12/37/57 29/38/57 13/39/57
f 13/39/58 30/1/58 14/79/58
f 10/40/59 30/1/59 29/38/59
f 11/44/60 29/80/60 28/45/60
f 1/81/61 28/36/61 21/35/61
f 16/46/62 27/8/62 26/33/62
f 25/32/63 16/46/63 26/33/63
f 7/49/64 25/32/64 23/31/64
f 41/11/65 1/51/65 21/12/65
f 15/47/66 24/9/66 27/8/66
f 42/4/67 7/54/67 23/5/67
f 30/1/68 3/55/68 22/2/68
f 22/56/69 31/53/69 42/4/69
f 5/58/70 41/11/70 24/68/70
f 10/59/71 40/14/71 39/28/71
f 9/60/72 39/28/72 38/26/72
f 3/61/73 38/26/73 31/25/73
f 36/22/74 20/63/74 37/17/74
f 35/21/75 19/62/75 36/22/75
f 8/65/76 35/21/76 32/20/76
f 37/17/77 6/66/77 34/18/77
f 11/44/78 33/15/78 40/14/78
f 6/67/79 41/11/79 34/10/79
f 4/69/80 42/4/80 32/72/80
