# Blender v3.0.0 OBJ File: ''
# www.blender.org
o Cylinder
v -128.000000 -112.731155 0.000007
v 128.000000 -112.731155 -0.000012
v -128.000000 -110.565056 21.992765
v 128.000000 -110.565056 21.992746
v -128.000000 -104.150002 43.140362
v 128.000000 -104.150002 43.140339
v -127.999992 -93.732529 62.630085
v 128.000000 -93.732529 62.630062
v -127.999992 -79.712959 79.712967
v 128.000000 -79.712959 79.712952
v -127.999992 -62.630074 93.732536
v 128.000000 -62.630074 93.732521
v -127.999992 -43.140343 104.150009
v 128.000015 -43.140343 104.149994
v -127.999992 -21.992760 110.565056
v 128.000015 -21.992760 110.565041
v -127.999992 0.000005 112.731163
v 128.000015 0.000005 112.731148
v -127.999992 21.992758 110.565063
v 128.000015 21.992758 110.565048
v -127.999992 43.140343 104.150017
v 128.000015 43.140343 104.150002
v -127.999992 62.630066 93.732544
v 128.000000 62.630066 93.732529
v -127.999992 79.712959 79.712967
v 128.000000 79.712967 79.712959
v -127.999992 93.732536 62.630077
v 128.000000 93.732536 62.630054
v -128.000000 104.150002 43.140362
v 128.000000 104.150002 43.140339
v -128.000000 110.565063 21.992765
v 128.000000 110.565056 21.992746
v -128.000000 112.731155 -0.000001
v 128.000000 112.731155 -0.000020
v -128.000000 110.565063 -21.992737
v 128.000000 110.565063 -21.992756
v -128.000000 104.150002 -43.140331
v 128.000000 104.150002 -43.140354
v -128.000000 93.732521 -62.630070
v 127.999992 93.732521 -62.630093
v -128.000000 79.712967 -79.712944
v 127.999992 79.712967 -79.712967
v -128.000000 62.630096 -93.732506
v 127.999992 62.630096 -93.732521
v -128.000015 43.140362 -104.149994
v 127.999992 43.140362 -104.150009
v -128.000015 21.992765 -110.565041
v 127.999992 21.992765 -110.565063
v -128.000015 -0.000002 -112.731148
v 127.999992 -0.000002 -112.731163
v -128.000015 -21.992767 -110.565048
v 127.999992 -21.992767 -110.565063
v -128.000015 -43.140366 -104.149986
v 127.999992 -43.140366 -104.150002
v -128.000000 -62.630054 -93.732536
v 127.999992 -62.630054 -93.732552
v -128.000000 -79.712959 -79.712967
v 127.999992 -79.712959 -79.712982
v -128.000000 -93.732529 -62.630070
v 127.999992 -93.732529 -62.630093
v -128.000000 -104.150009 -43.140335
v 128.000000 -104.150009 -43.140358
v -128.000000 -110.565063 -21.992739
v 128.000000 -110.565063 -21.992758
v -128.000000 -128.000000 0.000009
v -128.000000 -125.540512 24.971571
v 128.000000 -125.540512 24.971552
v 128.000000 -128.000000 -0.000010
v -128.000000 -118.256577 48.983494
v 128.000000 -118.256577 48.983471
v -127.999992 -106.428108 71.112999
v 128.000000 -106.428108 71.112984
v -127.999992 -90.509666 90.509674
v 128.000000 -90.509666 90.509659
v -127.999992 -71.112991 106.428116
v 128.000015 -71.112991 106.428101
v -127.999992 -48.983479 118.256584
v 128.000015 -48.983479 118.256569
v -127.999992 -24.971565 125.540520
v 128.000015 -24.971565 125.540504
v -127.999992 0.000005 128.000015
v 128.000015 0.000005 127.999992
v -127.999992 24.971561 125.540520
v 128.000015 24.971561 125.540504
v -127.999992 48.983475 118.256592
v 128.000015 48.983475 118.256577
v -127.999992 71.112984 106.428123
v 128.000015 71.112984 106.428108
v -127.999992 90.509666 90.509674
v 128.000000 90.509666 90.509659
v -127.999992 106.428116 71.112991
v 128.000000 106.428116 71.112976
v -128.000000 118.256577 48.983498
v 128.000000 118.256577 48.983475
v -128.000000 125.540520 24.971569
v 128.000000 125.540520 24.971550
v -128.000000 128.000000 -0.000002
v 128.000000 128.000000 -0.000021
v -128.000000 125.540520 -24.971542
v 128.000000 125.540520 -24.971561
v -128.000000 118.256577 -48.983467
v 128.000000 118.256577 -48.983490
v -128.000000 106.428101 -71.112991
v 127.999992 106.428101 -71.113007
v -128.000000 90.509674 -90.509651
v 127.999992 90.509674 -90.509666
v -128.000015 71.113014 -106.428085
v 127.999992 71.113014 -106.428101
v -128.000015 48.983498 -118.256569
v 127.999992 48.983498 -118.256584
v -128.000015 24.971569 -125.540504
v 127.999992 24.971569 -125.540520
v -128.000015 -0.000002 -127.999992
v 127.999992 -0.000002 -128.000015
v -128.000015 -24.971573 -125.540504
v 127.999992 -24.971573 -125.540520
v -128.000015 -48.983501 -118.256561
v 127.999992 -48.983501 -118.256577
v -128.000015 -71.112968 -106.428116
v 127.999992 -71.112968 -106.428131
v -128.000000 -90.509659 -90.509674
v 127.999992 -90.509659 -90.509689
v -128.000000 -106.428108 -71.112991
v 127.999992 -106.428108 -71.113007
v -128.000000 -118.256584 -48.983467
v 128.000000 -118.256584 -48.983490
v -128.000000 -125.540520 -24.971540
v 128.000000 -125.540520 -24.971560
vt 1.000000 1.000000
vt 0.968750 0.500000
vt 1.000000 0.500000
vt 0.968750 1.000000
vt 0.937500 0.500000
vt 0.937500 1.000000
vt 0.906250 0.500000
vt 0.906250 1.000000
vt 0.875000 0.500000
vt 0.875000 1.000000
vt 0.843750 0.500000
vt 0.843750 1.000000
vt 0.812500 0.500000
vt 0.812500 1.000000
vt 0.781250 0.500000
vt 0.781250 1.000000
vt 0.750000 0.500000
vt 0.750000 1.000000
vt 0.718750 0.500000
vt 0.718750 1.000000
vt 0.687500 0.500000
vt 0.687500 1.000000
vt 0.656250 0.500000
vt 0.656250 1.000000
vt 0.625000 0.500000
vt 0.625000 1.000000
vt 0.593750 0.500000
vt 0.593750 1.000000
vt 0.562500 0.500000
vt 0.562500 1.000000
vt 0.531250 0.500000
vt 0.531250 1.000000
vt 0.500000 0.500000
vt 0.500000 1.000000
vt 0.468750 0.500000
vt 0.468750 1.000000
vt 0.437500 0.500000
vt 0.437500 1.000000
vt 0.406250 0.500000
vt 0.406250 1.000000
vt 0.375000 0.500000
vt 0.375000 1.000000
vt 0.343750 0.500000
vt 0.343750 1.000000
vt 0.312500 0.500000
vt 0.312500 1.000000
vt 0.281250 0.500000
vt 0.281250 1.000000
vt 0.250000 0.500000
vt 0.250000 1.000000
vt 0.218750 0.500000
vt 0.218750 1.000000
vt 0.187500 0.500000
vt 0.187500 1.000000
vt 0.156250 0.500000
vt 0.156250 1.000000
vt 0.125000 0.500000
vt 0.125000 1.000000
vt 0.093750 0.500000
vt 0.093750 1.000000
vt 0.062500 0.500000
vt 0.062500 1.000000
vt 0.031250 0.500000
vt 0.031250 1.000000
vt 0.000000 0.500000
vt 0.750000 0.461371
vt 0.796822 0.485388
vt 0.791236 0.457309
vt 0.291236 0.457309
vt 0.250000 0.490000
vt 0.250000 0.461371
vt 0.841844 0.471731
vt 0.830888 0.445281
vt 0.330888 0.445281
vt 0.296822 0.485388
vt 0.883337 0.449553
vt 0.867431 0.425748
vt 0.367431 0.425748
vt 0.341844 0.471731
vt 0.919706 0.419706
vt 0.899461 0.399462
vt 0.399462 0.399462
vt 0.383337 0.449553
vt 0.949553 0.383337
vt 0.925748 0.367431
vt 0.425748 0.367431
vt 0.419706 0.419706
vt 0.971731 0.341844
vt 0.945281 0.330888
vt 0.471731 0.341844
vt 0.449553 0.383337
vt 0.985388 0.296822
vt 0.957309 0.291236
vt 0.457309 0.291236
vt 0.445281 0.330888
vt 0.961371 0.250000
vt 0.990000 0.250000
vt 0.461371 0.250000
vt 0.485388 0.296822
vt 0.985388 0.203178
vt 0.957309 0.208764
vt 0.485388 0.203178
vt 0.490000 0.250000
vt 0.971731 0.158156
vt 0.945281 0.169112
vt 0.445281 0.169112
vt 0.457309 0.208764
vt 0.949553 0.116663
vt 0.925748 0.132569
vt 0.425748 0.132569
vt 0.471731 0.158156
vt 0.919706 0.080294
vt 0.899462 0.100538
vt 0.399462 0.100538
vt 0.449553 0.116663
vt 0.883337 0.050447
vt 0.867431 0.074251
vt 0.383337 0.050447
vt 0.419706 0.080294
vt 0.841844 0.028269
vt 0.830888 0.054719
vt 0.367431 0.074252
vt 0.341844 0.028269
vt 0.791236 0.042691
vt 0.796822 0.014612
vt 0.291236 0.042691
vt 0.330888 0.054719
vt 0.750000 0.010000
vt 0.750000 0.038629
vt 0.250000 0.010000
vt 0.296822 0.014612
vt 0.708764 0.042691
vt 0.703178 0.014612
vt 0.208764 0.042691
vt 0.250000 0.038629
vt 0.658156 0.028269
vt 0.669112 0.054719
vt 0.169112 0.054719
vt 0.203178 0.014612
vt 0.616663 0.050447
vt 0.632568 0.074252
vt 0.132569 0.074251
vt 0.158156 0.028269
vt 0.600538 0.100538
vt 0.580294 0.080294
vt 0.100538 0.100538
vt 0.116663 0.050447
vt 0.574252 0.132569
vt 0.550447 0.116663
vt 0.074252 0.132569
vt 0.080294 0.080294
vt 0.554719 0.169112
vt 0.528269 0.158156
vt 0.054719 0.169112
vt 0.050447 0.116663
vt 0.514612 0.203178
vt 0.542690 0.208764
vt 0.042691 0.208764
vt 0.028269 0.158156
vt 0.510000 0.250000
vt 0.538629 0.250000
vt 0.038629 0.250000
vt 0.014612 0.203178
vt 0.514612 0.296822
vt 0.542691 0.291236
vt 0.014612 0.296822
vt 0.010000 0.250000
vt 0.528269 0.341844
vt 0.554719 0.330888
vt 0.054719 0.330888
vt 0.042691 0.291236
vt 0.574252 0.367431
vt 0.550447 0.383337
vt 0.074251 0.367431
vt 0.028269 0.341844
vt 0.580294 0.419706
vt 0.600538 0.399462
vt 0.100538 0.399462
vt 0.050447 0.383337
vt 0.616663 0.449553
vt 0.632569 0.425748
vt 0.116663 0.449553
vt 0.080294 0.419706
vt 0.669112 0.445281
vt 0.658156 0.471731
vt 0.169112 0.445281
vt 0.132569 0.425748
vt 0.703178 0.485388
vt 0.708763 0.457309
vt 0.208764 0.457309
vt 0.158156 0.471731
vt 0.750000 0.490000
vt 0.203178 0.485388
vt 0.362020 0.781216
vt 0.000060 0.749970
vt 0.362020 0.749969
vt 0.362020 0.812462
vt 0.000061 0.781216
vt 0.362020 0.843708
vt 0.000061 0.812462
vt 0.362020 0.874954
vt 0.000061 0.843709
vt 0.362021 0.906200
vt 0.000061 0.874955
vt 0.362021 0.937446
vt 0.000061 0.906201
vt 0.362021 0.968692
vt 0.000061 0.937447
vt 0.362021 0.999938
vt 0.000061 0.968694
vt 0.362021 0.031308
vt 0.000061 0.000060
vt 0.362021 0.000061
vt 0.362021 0.062554
vt 0.000061 0.031306
vt 0.362020 0.093800
vt 0.000061 0.062553
vt 0.362020 0.125046
vt 0.000061 0.093799
vt 0.362020 0.156292
vt 0.000060 0.125045
vt 0.362020 0.187538
vt 0.000060 0.156291
vt 0.362020 0.218785
vt 0.000060 0.187538
vt 0.362020 0.250031
vt 0.000060 0.218784
vt 0.362020 0.281277
vt 0.000060 0.250030
vt 0.362020 0.312523
vt 0.000060 0.281276
vt 0.362020 0.343769
vt 0.000060 0.312523
vt 0.362020 0.375015
vt 0.000060 0.343769
vt 0.362020 0.406262
vt 0.000060 0.375015
vt 0.362020 0.437508
vt 0.000060 0.406261
vt 0.362020 0.468754
vt 0.000060 0.437508
vt 0.362020 0.500000
vt 0.000060 0.468754
vt 0.362020 0.531246
vt 0.000060 0.500000
vt 0.362020 0.562492
vt 0.000060 0.531246
vt 0.362020 0.593739
vt 0.000060 0.562493
vt 0.362020 0.624985
vt 0.000060 0.593739
vt 0.362020 0.656231
vt 0.000060 0.624985
vt 0.362020 0.687477
vt 0.000060 0.656231
vt 0.362020 0.718723
vt 0.000060 0.687478
vt 0.000060 0.718724
vt 0.000000 1.000000
vt 0.000061 0.999940
vn 0.0000 -0.9952 0.0980
vn 0.0000 -0.9569 0.2903
vn 0.0000 -0.8819 0.4714
vn 0.0000 -0.7730 0.6344
vn 0.0000 -0.6344 0.7730
vn 0.0000 -0.4714 0.8819
vn 0.0000 -0.2903 0.9569
vn 0.0000 -0.0980 0.9952
vn 0.0000 0.0980 0.9952
vn 0.0000 0.2903 0.9569
vn 0.0000 0.4714 0.8819
vn 0.0000 0.6344 0.7730
vn 0.0000 0.7730 0.6344
vn 0.0000 0.8819 0.4714
vn 0.0000 0.9569 0.2903
vn 0.0000 0.9952 0.0980
vn -0.0000 0.9952 -0.0980
vn -0.0000 0.9569 -0.2903
vn -0.0000 0.8819 -0.4714
vn 0.0000 0.7730 -0.6344
vn 0.0000 0.6344 -0.7730
vn 0.0000 0.4714 -0.8819
vn 0.0000 0.2903 -0.9569
vn 0.0000 0.0980 -0.9952
vn -0.0000 -0.0980 -0.9952
vn -0.0000 -0.2903 -0.9569
vn 0.0000 -0.4714 -0.8819
vn -0.0000 -0.6344 -0.7730
vn -0.0000 -0.7730 -0.6344
vn -0.0000 -0.8819 -0.4714
vn -0.0000 -0.9569 -0.2903
vn -0.0000 -0.9952 -0.0980
vn -1.0000 0.0000 0.0000
vn 1.0000 0.0000 0.0000
s off
f 68/1/1 66/2/1 65/3/1
f 67/4/2 69/5/2 66/2/2
f 70/6/3 71/7/3 69/5/3
f 72/8/4 73/9/4 71/7/4
f 74/10/5 75/11/5 73/9/5
f 76/12/6 77/13/6 75/11/6
f 78/14/7 79/15/7 77/13/7
f 80/16/8 81/17/8 79/15/8
f 82/18/9 83/19/9 81/17/9
f 84/20/10 85/21/10 83/19/10
f 86/22/11 87/23/11 85/21/11
f 88/24/12 89/25/12 87/23/12
f 90/26/13 91/27/13 89/25/13
f 92/28/14 93/29/14 91/27/14
f 94/30/15 95/31/15 93/29/15
f 96/32/16 97/33/16 95/31/16
f 98/34/17 99/35/17 97/33/17
f 100/36/18 101/37/18 99/35/18
f 102/38/19 103/39/19 101/37/19
f 104/40/20 105/41/20 103/39/20
f 106/42/21 107/43/21 105/41/21
f 108/44/22 109/45/22 107/43/22
f 110/46/23 111/47/23 109/45/23
f 112/48/24 113/49/24 111/47/24
f 114/50/25 115/51/25 113/49/25
f 116/52/26 117/53/26 115/51/26
f 118/54/27 119/55/27 117/53/27
f 120/56/28 121/57/28 119/55/28
f 122/58/29 123/59/29 121/57/29
f 124/60/30 125/61/30 123/59/30
f 126/62/31 127/63/31 125/61/31
f 128/64/32 65/65/32 127/63/32
f 1/66/33 66/67/33 3/68/33
f 4/69/34 68/70/34 2/71/34
f 3/68/33 69/72/33 5/73/33
f 6/74/34 67/75/34 4/69/34
f 5/73/33 71/76/33 7/77/33
f 8/78/34 70/79/34 6/74/34
f 7/77/33 73/80/33 9/81/33
f 10/82/34 72/83/34 8/78/34
f 9/81/33 75/84/33 11/85/33
f 12/86/34 74/87/34 10/82/34
f 11/85/33 77/88/33 13/89/33
f 12/86/34 78/90/34 76/91/34
f 13/89/33 79/92/33 15/93/33
f 16/94/34 78/90/34 14/95/34
f 17/96/33 79/92/33 81/97/33
f 18/98/34 80/99/34 16/94/34
f 17/96/33 83/100/33 19/101/33
f 18/98/34 84/102/34 82/103/34
f 19/101/33 85/104/33 21/105/33
f 22/106/34 84/102/34 20/107/34
f 21/105/33 87/108/33 23/109/33
f 24/110/34 86/111/34 22/106/34
f 23/109/33 89/112/33 25/113/33
f 26/114/34 88/115/34 24/110/34
f 25/113/33 91/116/33 27/117/33
f 26/114/34 92/118/34 90/119/34
f 27/117/33 93/120/33 29/121/33
f 28/122/34 94/123/34 92/118/34
f 31/124/33 93/120/33 95/125/33
f 32/126/34 94/123/34 30/127/34
f 31/124/33 97/128/33 33/129/33
f 32/126/34 98/130/34 96/131/34
f 35/132/33 97/128/33 99/133/33
f 36/134/34 98/130/34 34/135/34
f 35/132/33 101/136/33 37/137/33
f 38/138/34 100/139/34 36/134/34
f 37/137/33 103/140/33 39/141/33
f 40/142/34 102/143/34 38/138/34
f 41/144/33 103/140/33 105/145/33
f 42/146/34 104/147/34 40/142/34
f 43/148/33 105/145/33 107/149/33
f 44/150/34 106/151/34 42/146/34
f 45/152/33 107/149/33 109/153/33
f 46/154/34 108/155/34 44/150/34
f 45/152/33 111/156/33 47/157/33
f 48/158/34 110/159/34 46/154/34
f 47/157/33 113/160/33 49/161/33
f 50/162/34 112/163/34 48/158/34
f 49/161/33 115/164/33 51/165/33
f 50/162/34 116/166/34 114/167/34
f 51/165/33 117/168/33 53/169/33
f 54/170/34 116/166/34 52/171/34
f 55/172/33 117/168/33 119/173/33
f 56/174/34 118/175/34 54/170/34
f 55/172/33 121/176/33 57/177/33
f 58/178/34 120/179/34 56/174/34
f 57/177/33 123/180/33 59/181/33
f 58/178/34 124/182/34 122/183/34
f 61/184/33 123/180/33 125/185/33
f 62/186/34 124/182/34 60/187/34
f 61/184/33 127/188/33 63/189/33
f 64/190/34 126/191/34 62/186/34
f 63/189/33 65/192/33 1/66/33
f 64/190/34 68/70/34 128/193/34
f 64/194/16 1/195/16 2/196/16
f 62/197/15 63/198/15 64/194/15
f 60/199/14 61/200/14 62/197/14
f 58/201/13 59/202/13 60/199/13
f 56/203/12 57/204/12 58/201/12
f 54/205/11 55/206/11 56/203/11
f 52/207/10 53/208/10 54/205/10
f 50/209/9 51/210/9 52/207/9
f 48/211/8 49/212/8 50/213/8
f 46/214/7 47/215/7 48/211/7
f 44/216/6 45/217/6 46/214/6
f 42/218/5 43/219/5 44/216/5
f 40/220/4 41/221/4 42/218/4
f 38/222/3 39/223/3 40/220/3
f 36/224/2 37/225/2 38/222/2
f 34/226/1 35/227/1 36/224/1
f 32/228/32 33/229/32 34/226/32
f 30/230/31 31/231/31 32/228/31
f 28/232/30 29/233/30 30/230/30
f 26/234/29 27/235/29 28/232/29
f 24/236/28 25/237/28 26/234/28
f 22/238/27 23/239/27 24/236/27
f 20/240/26 21/241/26 22/238/26
f 18/242/25 19/243/25 20/240/25
f 16/244/24 17/245/24 18/242/24
f 14/246/23 15/247/23 16/244/23
f 12/248/22 13/249/22 14/246/22
f 10/250/21 11/251/21 12/248/21
f 8/252/20 9/253/20 10/250/20
f 6/254/19 7/255/19 8/252/19
f 4/256/18 5/257/18 6/254/18
f 2/196/17 3/258/17 4/256/17
f 68/1/1 67/4/1 66/2/1
f 67/4/2 70/6/2 69/5/2
f 70/6/3 72/8/3 71/7/3
f 72/8/4 74/10/4 73/9/4
f 74/10/5 76/12/5 75/11/5
f 76/12/6 78/14/6 77/13/6
f 78/14/7 80/16/7 79/15/7
f 80/16/8 82/18/8 81/17/8
f 82/18/9 84/20/9 83/19/9
f 84/20/10 86/22/10 85/21/10
f 86/22/11 88/24/11 87/23/11
f 88/24/12 90/26/12 89/25/12
f 90/26/13 92/28/13 91/27/13
f 92/28/14 94/30/14 93/29/14
f 94/30/15 96/32/15 95/31/15
f 96/32/16 98/34/16 97/33/16
f 98/34/17 100/36/17 99/35/17
f 100/36/18 102/38/18 101/37/18
f 102/38/19 104/40/19 103/39/19
f 104/40/20 106/42/20 105/41/20
f 106/42/21 108/44/21 107/43/21
f 108/44/22 110/46/22 109/45/22
f 110/46/23 112/48/23 111/47/23
f 112/48/24 114/50/24 113/49/24
f 114/50/25 116/52/25 115/51/25
f 116/52/26 118/54/26 117/53/26
f 118/54/27 120/56/27 119/55/27
f 120/56/28 122/58/28 121/57/28
f 122/58/29 124/60/29 123/59/29
f 124/60/30 126/62/30 125/61/30
f 126/62/31 128/64/31 127/63/31
f 128/64/32 68/259/32 65/65/32
f 1/66/33 65/192/33 66/67/33
f 4/69/34 67/75/34 68/70/34
f 3/68/33 66/67/33 69/72/33
f 6/74/34 70/79/34 67/75/34
f 5/73/33 69/72/33 71/76/33
f 8/78/34 72/83/34 70/79/34
f 7/77/33 71/76/33 73/80/33
f 10/82/34 74/87/34 72/83/34
f 9/81/33 73/80/33 75/84/33
f 12/86/34 76/91/34 74/87/34
f 11/85/33 75/84/33 77/88/33
f 12/86/34 14/95/34 78/90/34
f 13/89/33 77/88/33 79/92/33
f 16/94/34 80/99/34 78/90/34
f 17/96/33 15/93/33 79/92/33
f 18/98/34 82/103/34 80/99/34
f 17/96/33 81/97/33 83/100/33
f 18/98/34 20/107/34 84/102/34
f 19/101/33 83/100/33 85/104/33
f 22/106/34 86/111/34 84/102/34
f 21/105/33 85/104/33 87/108/33
f 24/110/34 88/115/34 86/111/34
f 23/109/33 87/108/33 89/112/33
f 26/114/34 90/119/34 88/115/34
f 25/113/33 89/112/33 91/116/33
f 26/114/34 28/122/34 92/118/34
f 27/117/33 91/116/33 93/120/33
f 28/122/34 30/127/34 94/123/34
f 31/124/33 29/121/33 93/120/33
f 32/126/34 96/131/34 94/123/34
f 31/124/33 95/125/33 97/128/33
f 32/126/34 34/135/34 98/130/34
f 35/132/33 33/129/33 97/128/33
f 36/134/34 100/139/34 98/130/34
f 35/132/33 99/133/33 101/136/33
f 38/138/34 102/143/34 100/139/34
f 37/137/33 101/136/33 103/140/33
f 40/142/34 104/147/34 102/143/34
f 41/144/33 39/141/33 103/140/33
f 42/146/34 106/151/34 104/147/34
f 43/148/33 41/144/33 105/145/33
f 44/150/34 108/155/34 106/151/34
f 45/152/33 43/148/33 107/149/33
f 46/154/34 110/159/34 108/155/34
f 45/152/33 109/153/33 111/156/33
f 48/158/34 112/163/34 110/159/34
f 47/157/33 111/156/33 113/160/33
f 50/162/34 114/167/34 112/163/34
f 49/161/33 113/160/33 115/164/33
f 50/162/34 52/171/34 116/166/34
f 51/165/33 115/164/33 117/168/33
f 54/170/34 118/175/34 116/166/34
f 55/172/33 53/169/33 117/168/33
f 56/174/34 120/179/34 118/175/34
f 55/172/33 119/173/33 121/176/33
f 58/178/34 122/183/34 120/179/34
f 57/177/33 121/176/33 123/180/33
f 58/178/34 60/187/34 124/182/34
f 61/184/33 59/181/33 123/180/33
f 62/186/34 126/191/34 124/182/34
f 61/184/33 125/185/33 127/188/33
f 64/190/34 128/193/34 126/191/34
f 63/189/33 127/188/33 65/192/33
f 64/190/34 2/71/34 68/70/34
f 64/194/16 63/198/16 1/195/16
f 62/197/15 61/200/15 63/198/15
f 60/199/14 59/202/14 61/200/14
f 58/201/13 57/204/13 59/202/13
f 56/203/12 55/206/12 57/204/12
f 54/205/11 53/208/11 55/206/11
f 52/207/10 51/210/10 53/208/10
f 50/209/9 49/260/9 51/210/9
f 48/211/8 47/215/8 49/212/8
f 46/214/7 45/217/7 47/215/7
f 44/216/6 43/219/6 45/217/6
f 42/218/5 41/221/5 43/219/5
f 40/220/4 39/223/4 41/221/4
f 38/222/3 37/225/3 39/223/3
f 36/224/2 35/227/2 37/225/2
f 34/226/1 33/229/1 35/227/1
f 32/228/32 31/231/32 33/229/32
f 30/230/31 29/233/31 31/231/31
f 28/232/30 27/235/30 29/233/30
f 26/234/29 25/237/29 27/235/29
f 24/236/28 23/239/28 25/237/28
f 22/238/27 21/241/27 23/239/27
f 20/240/26 19/243/26 21/241/26
f 18/242/25 17/245/25 19/243/25
f 16/244/24 15/247/24 17/245/24
f 14/246/23 13/249/23 15/247/23
f 12/248/22 11/251/22 13/249/22
f 10/250/21 9/253/21 11/251/21
f 8/252/20 7/255/20 9/253/20
f 6/254/19 5/257/19 7/255/19
f 4/256/18 3/258/18 5/257/18
f 2/196/17 1/195/17 3/258/17
